<?xml version="1.0" encoding="UTF-8"?>
<svg xmlns="http://www.w3.org/2000/svg" xmlns:xlink="http://www.w3.org/1999/xlink" width="110px" height="80px" viewBox="0 0 109 80" version="1.1">
<g id="surface1">
<path style=" stroke:none;fill-rule:nonzero;fill:rgb(100%,100%,100%);fill-opacity:1;" d="M 13.832031 4.367188 L 13.832031 7.003906 L 7.832031 7.003906 L 7.832031 10.742188 L 12.832031 10.742188 L 12.832031 13.394531 L 7.832031 13.394531 L 7.832031 19.144531 L 4.417969 19.144531 L 4.417969 4.367188 Z M 13.832031 4.367188 "/>
<path style=" stroke:none;fill-rule:nonzero;fill:rgb(100%,100%,100%);fill-opacity:1;" d="M 19.253906 3.960938 L 19.253906 19.148438 L 16.140625 19.148438 L 16.140625 3.960938 Z M 19.253906 3.960938 "/>
<path style=" stroke:none;fill-rule:nonzero;fill:rgb(100%,100%,100%);fill-opacity:1;" d="M 26.664062 8.464844 C 27.351562 8.464844 27.984375 8.570312 28.554688 8.789062 C 29.128906 9.007812 29.617188 9.320312 30.035156 9.730469 C 30.445312 10.148438 30.765625 10.648438 30.996094 11.25 C 31.226562 11.847656 31.339844 12.527344 31.339844 13.289062 C 31.339844 13.523438 31.332031 13.714844 31.3125 13.863281 C 31.289062 14.007812 31.257812 14.132812 31.199219 14.21875 C 31.148438 14.304688 31.074219 14.367188 30.984375 14.398438 C 30.894531 14.433594 30.78125 14.449219 30.640625 14.449219 L 24.632812 14.449219 C 24.734375 15.332031 25 15.96875 25.425781 16.367188 C 25.851562 16.757812 26.40625 16.957031 27.082031 16.957031 C 27.441406 16.957031 27.753906 16.914062 28.015625 16.824219 C 28.277344 16.742188 28.511719 16.636719 28.710938 16.53125 C 28.914062 16.425781 29.101562 16.324219 29.273438 16.238281 C 29.445312 16.152344 29.625 16.105469 29.808594 16.105469 C 30.054688 16.105469 30.242188 16.195312 30.371094 16.382812 L 31.273438 17.503906 C 30.953125 17.878906 30.601562 18.179688 30.230469 18.410156 C 29.859375 18.644531 29.476562 18.824219 29.085938 18.957031 C 28.695312 19.085938 28.308594 19.179688 27.914062 19.230469 C 27.523438 19.28125 27.148438 19.304688 26.796875 19.304688 C 26.066406 19.304688 25.386719 19.183594 24.746094 18.945312 C 24.101562 18.710938 23.546875 18.351562 23.066406 17.878906 C 22.585938 17.40625 22.210938 16.816406 21.933594 16.113281 C 21.660156 15.40625 21.519531 14.585938 21.519531 13.65625 C 21.519531 12.953125 21.636719 12.285156 21.875 11.65625 C 22.109375 11.027344 22.453125 10.476562 22.894531 10 C 23.339844 9.527344 23.878906 9.148438 24.511719 8.875 C 25.15625 8.601562 25.867188 8.464844 26.664062 8.464844 Z M 26.722656 10.636719 C 26.125 10.636719 25.660156 10.808594 25.328125 11.148438 C 24.992188 11.488281 24.769531 11.984375 24.664062 12.628906 L 28.550781 12.628906 C 28.550781 12.375 28.519531 12.132812 28.457031 11.898438 C 28.390625 11.660156 28.292969 11.453125 28.144531 11.265625 C 28 11.078125 27.808594 10.929688 27.578125 10.816406 C 27.34375 10.695312 27.058594 10.636719 26.722656 10.636719 Z M 26.722656 10.636719 "/>
<path style=" stroke:none;fill-rule:nonzero;fill:rgb(100%,100%,100%);fill-opacity:1;" d="M 33.570312 19.148438 L 33.570312 8.628906 L 35.5 8.628906 C 35.695312 8.628906 35.855469 8.671875 35.984375 8.757812 C 36.117188 8.847656 36.207031 8.976562 36.261719 9.152344 L 36.429688 9.722656 C 36.605469 9.539062 36.785156 9.371094 36.972656 9.21875 C 37.15625 9.070312 37.363281 8.9375 37.578125 8.824219 C 37.792969 8.710938 38.027344 8.628906 38.28125 8.5625 C 38.527344 8.496094 38.804688 8.464844 39.105469 8.464844 C 39.738281 8.464844 40.253906 8.628906 40.667969 8.957031 C 41.082031 9.289062 41.394531 9.722656 41.605469 10.269531 C 41.78125 9.945312 41.992188 9.664062 42.242188 9.4375 C 42.492188 9.210938 42.761719 9.023438 43.054688 8.882812 C 43.34375 8.742188 43.652344 8.632812 43.972656 8.566406 C 44.300781 8.5 44.621094 8.464844 44.941406 8.464844 C 45.535156 8.464844 46.066406 8.554688 46.53125 8.734375 C 46.992188 8.914062 47.375 9.175781 47.691406 9.511719 C 48 9.851562 48.238281 10.273438 48.398438 10.769531 C 48.558594 11.265625 48.636719 11.828125 48.636719 12.460938 L 48.636719 19.148438 L 45.527344 19.148438 L 45.527344 12.464844 C 45.527344 11.378906 45.066406 10.832031 44.140625 10.832031 C 43.71875 10.832031 43.367188 10.972656 43.09375 11.25 C 42.816406 11.527344 42.675781 11.933594 42.675781 12.464844 L 42.675781 19.152344 L 39.566406 19.152344 L 39.566406 12.464844 C 39.566406 11.863281 39.453125 11.4375 39.214844 11.195312 C 38.980469 10.953125 38.632812 10.832031 38.183594 10.832031 C 37.902344 10.832031 37.640625 10.898438 37.386719 11.023438 C 37.136719 11.148438 36.902344 11.320312 36.683594 11.539062 L 36.683594 19.148438 Z M 33.570312 19.148438 "/>
<path style=" stroke:none;fill-rule:nonzero;fill:rgb(100%,100%,100%);fill-opacity:1;" d="M 54.875 5.746094 C 54.875 6 54.828125 6.234375 54.726562 6.449219 C 54.625 6.667969 54.492188 6.859375 54.3125 7.027344 C 54.140625 7.195312 53.9375 7.328125 53.707031 7.421875 C 53.476562 7.519531 53.230469 7.570312 52.972656 7.570312 C 52.714844 7.570312 52.480469 7.519531 52.261719 7.421875 C 52.042969 7.328125 51.847656 7.195312 51.675781 7.027344 C 51.503906 6.859375 51.371094 6.667969 51.273438 6.449219 C 51.175781 6.234375 51.128906 5.992188 51.128906 5.746094 C 51.128906 5.488281 51.175781 5.25 51.273438 5.027344 C 51.371094 4.804688 51.503906 4.605469 51.675781 4.441406 C 51.847656 4.273438 52.042969 4.140625 52.261719 4.046875 C 52.480469 3.949219 52.722656 3.902344 52.972656 3.902344 C 53.230469 3.902344 53.476562 3.949219 53.707031 4.046875 C 53.9375 4.140625 54.144531 4.273438 54.3125 4.441406 C 54.492188 4.605469 54.625 4.804688 54.726562 5.027344 C 54.828125 5.25 54.875 5.488281 54.875 5.746094 Z M 54.515625 8.628906 L 54.515625 19.148438 L 51.40625 19.148438 L 51.40625 8.628906 Z M 54.515625 8.628906 "/>
<path style=" stroke:none;fill-rule:nonzero;fill:rgb(98.039216%,65.098039%,12.156863%);fill-opacity:1;" d="M 57.464844 19.148438 L 57.464844 8.628906 L 59.394531 8.628906 C 59.589844 8.628906 59.75 8.671875 59.878906 8.757812 C 60.011719 8.847656 60.101562 8.976562 60.15625 9.152344 L 60.335938 9.761719 C 60.535156 9.574219 60.742188 9.398438 60.957031 9.234375 C 61.171875 9.070312 61.402344 8.9375 61.644531 8.824219 C 61.886719 8.710938 62.15625 8.628906 62.433594 8.5625 C 62.71875 8.496094 63.03125 8.464844 63.359375 8.464844 C 63.933594 8.464844 64.433594 8.566406 64.875 8.765625 C 65.316406 8.960938 65.683594 9.242188 65.980469 9.59375 C 66.28125 9.949219 66.507812 10.375 66.664062 10.859375 C 66.820312 11.351562 66.894531 11.882812 66.894531 12.460938 L 66.894531 19.148438 L 63.785156 19.148438 L 63.785156 12.464844 C 63.785156 11.949219 63.667969 11.550781 63.433594 11.257812 C 63.195312 10.972656 62.851562 10.832031 62.398438 10.832031 C 62.058594 10.832031 61.738281 10.90625 61.4375 11.054688 C 61.136719 11.199219 60.847656 11.402344 60.574219 11.648438 L 60.574219 19.148438 Z M 57.464844 19.148438 "/>
<path style=" stroke:none;fill-rule:nonzero;fill:rgb(100%,100%,100%);fill-opacity:1;" d="M 73.226562 8.445312 C 73.667969 8.445312 74.082031 8.492188 74.476562 8.578125 C 74.867188 8.664062 75.234375 8.789062 75.566406 8.953125 L 78.703125 8.953125 L 78.703125 10.097656 C 78.703125 10.273438 78.65625 10.410156 78.5625 10.511719 C 78.464844 10.613281 78.300781 10.6875 78.0625 10.742188 L 77.300781 10.914062 C 77.398438 11.21875 77.441406 11.535156 77.441406 11.859375 C 77.441406 12.382812 77.332031 12.859375 77.121094 13.28125 C 76.902344 13.699219 76.601562 14.054688 76.226562 14.351562 C 75.84375 14.644531 75.402344 14.871094 74.882812 15.027344 C 74.367188 15.191406 73.816406 15.265625 73.226562 15.265625 C 72.898438 15.265625 72.589844 15.246094 72.304688 15.207031 C 72.078125 15.339844 71.964844 15.5 71.964844 15.675781 C 71.964844 15.851562 72.054688 15.980469 72.238281 16.058594 C 72.421875 16.140625 72.664062 16.195312 72.964844 16.222656 C 73.265625 16.253906 73.609375 16.269531 73.996094 16.269531 C 74.382812 16.269531 74.777344 16.289062 75.183594 16.324219 C 75.582031 16.359375 75.980469 16.425781 76.367188 16.511719 C 76.753906 16.597656 77.097656 16.742188 77.398438 16.9375 C 77.699219 17.132812 77.941406 17.398438 78.125 17.726562 C 78.308594 18.054688 78.398438 18.476562 78.398438 18.980469 C 78.398438 19.460938 78.285156 19.925781 78.0625 20.375 C 77.835938 20.832031 77.5 21.234375 77.058594 21.585938 C 76.617188 21.941406 76.074219 22.222656 75.429688 22.433594 C 74.789062 22.648438 74.050781 22.753906 73.21875 22.753906 C 72.40625 22.753906 71.695312 22.679688 71.105469 22.523438 C 70.515625 22.367188 70.019531 22.164062 69.628906 21.910156 C 69.238281 21.65625 68.949219 21.363281 68.761719 21.027344 C 68.574219 20.695312 68.480469 20.351562 68.480469 19.992188 C 68.480469 19.523438 68.621094 19.128906 68.902344 18.804688 C 69.183594 18.488281 69.566406 18.234375 70.054688 18.050781 C 69.820312 17.894531 69.632812 17.695312 69.492188 17.453125 C 69.351562 17.210938 69.285156 16.898438 69.285156 16.53125 C 69.285156 16.375 69.308594 16.210938 69.363281 16.039062 C 69.417969 15.867188 69.5 15.699219 69.613281 15.539062 C 69.730469 15.378906 69.867188 15.21875 70.046875 15.070312 C 70.21875 14.929688 70.425781 14.792969 70.664062 14.679688 C 70.125 14.390625 69.699219 14 69.382812 13.523438 C 69.074219 13.042969 68.917969 12.488281 68.917969 11.847656 C 68.917969 11.320312 69.027344 10.847656 69.246094 10.417969 C 69.46875 10 69.769531 9.640625 70.15625 9.347656 C 70.539062 9.054688 70.992188 8.824219 71.515625 8.667969 C 72.054688 8.523438 72.617188 8.445312 73.226562 8.445312 Z M 75.535156 19.511719 C 75.535156 19.339844 75.484375 19.207031 75.378906 19.101562 C 75.273438 18.996094 75.132812 18.914062 74.960938 18.851562 C 74.78125 18.789062 74.574219 18.742188 74.335938 18.710938 C 74.101562 18.6875 73.839844 18.671875 73.570312 18.671875 C 73.296875 18.671875 73.011719 18.671875 72.71875 18.671875 C 72.421875 18.671875 72.132812 18.644531 71.847656 18.585938 C 71.652344 18.726562 71.496094 18.875 71.371094 19.039062 C 71.246094 19.207031 71.1875 19.394531 71.1875 19.605469 C 71.1875 19.753906 71.21875 19.886719 71.28125 20.007812 C 71.347656 20.132812 71.457031 20.238281 71.617188 20.324219 C 71.777344 20.410156 71.996094 20.480469 72.265625 20.53125 C 72.535156 20.582031 72.878906 20.605469 73.289062 20.605469 C 73.742188 20.605469 74.109375 20.582031 74.398438 20.527344 C 74.683594 20.472656 74.914062 20.394531 75.082031 20.300781 C 75.253906 20.203125 75.375 20.085938 75.441406 19.949219 C 75.503906 19.820312 75.535156 19.671875 75.535156 19.511719 Z M 73.226562 13.335938 C 73.742188 13.335938 74.109375 13.207031 74.34375 12.945312 C 74.574219 12.6875 74.6875 12.351562 74.6875 11.941406 C 74.6875 11.511719 74.574219 11.179688 74.34375 10.9375 C 74.109375 10.695312 73.738281 10.570312 73.226562 10.570312 C 72.710938 10.570312 72.339844 10.695312 72.109375 10.9375 C 71.878906 11.179688 71.761719 11.511719 71.761719 11.941406 C 71.761719 12.140625 71.792969 12.328125 71.847656 12.496094 C 71.902344 12.664062 71.996094 12.808594 72.113281 12.9375 C 72.234375 13.0625 72.382812 13.160156 72.570312 13.230469 C 72.753906 13.300781 72.976562 13.335938 73.226562 13.335938 Z M 73.226562 13.335938 "/>
<path style=" stroke:none;fill-rule:nonzero;fill:rgb(100%,100%,100%);fill-opacity:1;" d="M 28.597656 70.734375 C 29.902344 70.734375 31.105469 70.671875 32.199219 70.546875 C 33.289062 70.417969 34.320312 70.234375 35.292969 69.984375 C 36.265625 69.738281 37.175781 69.433594 38.035156 69.078125 C 38.890625 68.726562 39.746094 68.320312 40.605469 67.863281 L 40.605469 57.058594 L 33.089844 57.058594 C 32.65625 57.058594 32.320312 56.929688 32.058594 56.679688 C 31.796875 56.429688 31.667969 56.121094 31.667969 55.757812 L 31.667969 51.992188 L 46.554688 51.992188 L 46.554688 70.804688 C 45.339844 71.695312 44.070312 72.472656 42.75 73.128906 C 41.429688 73.792969 40.015625 74.34375 38.519531 74.789062 C 37.019531 75.234375 35.414062 75.566406 33.695312 75.78125 C 31.984375 76 30.117188 76.105469 28.109375 76.105469 C 24.59375 76.105469 21.367188 75.5 18.433594 74.277344 C 15.496094 73.058594 12.972656 71.347656 10.851562 69.148438 C 8.734375 66.953125 7.078125 64.308594 5.890625 61.230469 C 4.710938 58.152344 4.113281 54.765625 4.113281 51.070312 C 4.113281 47.332031 4.695312 43.925781 5.859375 40.847656 C 7.019531 37.765625 8.675781 35.128906 10.832031 32.929688 C 12.988281 30.726562 15.59375 29.023438 18.648438 27.8125 C 21.703125 26.601562 25.128906 26 28.914062 26 C 30.835938 26 32.617188 26.140625 34.261719 26.425781 C 35.910156 26.710938 37.4375 27.125 38.84375 27.65625 C 40.253906 28.195312 41.554688 28.839844 42.753906 29.605469 C 43.949219 30.367188 45.0625 31.230469 46.105469 32.1875 L 44.242188 35.195312 C 43.855469 35.8125 43.359375 36.117188 42.753906 36.117188 C 42.390625 36.117188 41.996094 35.992188 41.570312 35.742188 C 41.003906 35.421875 40.375 35.035156 39.679688 34.578125 C 38.976562 34.121094 38.125 33.679688 37.121094 33.257812 C 36.121094 32.839844 34.933594 32.480469 33.570312 32.179688 C 32.207031 31.886719 30.585938 31.738281 28.71875 31.738281 C 25.984375 31.738281 23.515625 32.1875 21.308594 33.085938 C 19.097656 33.992188 17.214844 35.273438 15.65625 36.953125 C 14.097656 38.628906 12.90625 40.660156 12.070312 43.039062 C 11.230469 45.421875 10.820312 48.097656 10.820312 51.058594 C 10.820312 54.15625 11.253906 56.921875 12.121094 59.351562 C 12.988281 61.777344 14.210938 63.835938 15.792969 65.523438 C 17.371094 67.210938 19.242188 68.5 21.40625 69.386719 C 23.59375 70.289062 25.980469 70.734375 28.597656 70.734375 Z M 28.597656 70.734375 "/>
<path style=" stroke:none;fill-rule:nonzero;fill:rgb(100%,100%,100%);fill-opacity:1;" d="M 102.257812 34.203125 C 102.054688 34.546875 101.84375 34.800781 101.617188 34.972656 C 101.394531 35.144531 101.097656 35.230469 100.734375 35.230469 C 100.351562 35.230469 99.910156 35.039062 99.398438 34.648438 C 98.894531 34.261719 98.246094 33.835938 97.46875 33.367188 C 96.695312 32.898438 95.757812 32.472656 94.660156 32.085938 C 93.570312 31.699219 92.242188 31.503906 90.683594 31.503906 C 89.214844 31.503906 87.917969 31.707031 86.789062 32.101562 C 85.664062 32.5 84.722656 33.042969 83.964844 33.726562 C 83.210938 34.410156 82.640625 35.214844 82.257812 36.136719 C 81.871094 37.058594 81.679688 38.054688 81.679688 39.128906 C 81.679688 40.496094 82.011719 41.632812 82.679688 42.53125 C 83.34375 43.433594 84.222656 44.203125 85.316406 44.839844 C 86.410156 45.476562 87.652344 46.03125 89.042969 46.5 C 90.425781 46.964844 91.84375 47.453125 93.300781 47.953125 C 94.757812 48.457031 96.179688 49.023438 97.566406 49.648438 C 98.957031 50.273438 100.195312 51.0625 101.289062 52.023438 C 102.378906 52.980469 103.261719 54.15625 103.929688 55.550781 C 104.597656 56.941406 104.925781 58.648438 104.925781 60.679688 C 104.925781 62.820312 104.566406 64.835938 103.84375 66.710938 C 103.121094 68.59375 102.066406 70.234375 100.675781 71.617188 C 99.289062 73.011719 97.585938 74.105469 95.566406 74.898438 C 93.546875 75.699219 91.253906 76.097656 88.683594 76.097656 C 85.546875 76.097656 82.6875 75.519531 80.109375 74.367188 C 77.523438 73.21875 75.320312 71.660156 73.492188 69.699219 L 75.386719 66.554688 C 75.566406 66.304688 75.785156 66.089844 76.046875 65.917969 C 76.304688 65.746094 76.589844 65.660156 76.90625 65.660156 C 77.378906 65.660156 77.925781 65.917969 78.53125 66.429688 C 79.140625 66.941406 79.902344 67.507812 80.816406 68.121094 C 81.726562 68.742188 82.835938 69.300781 84.128906 69.8125 C 85.429688 70.324219 87.011719 70.582031 88.886719 70.582031 C 90.441406 70.582031 91.832031 70.367188 93.046875 69.933594 C 94.265625 69.5 95.296875 68.890625 96.144531 68.105469 C 96.992188 67.320312 97.636719 66.382812 98.089844 65.289062 C 98.539062 64.195312 98.761719 62.972656 98.761719 61.625 C 98.761719 60.140625 98.433594 58.929688 97.769531 57.984375 C 97.101562 57.039062 96.230469 56.246094 95.148438 55.609375 C 94.0625 54.972656 92.828125 54.429688 91.441406 53.984375 C 90.050781 53.539062 88.632812 53.085938 87.175781 52.617188 C 85.726562 52.152344 84.300781 51.609375 82.914062 50.992188 C 81.527344 50.375 80.292969 49.582031 79.207031 48.597656 C 78.125 47.617188 77.246094 46.390625 76.585938 44.921875 C 75.917969 43.445312 75.589844 41.632812 75.589844 39.46875 C 75.589844 37.738281 75.917969 36.058594 76.585938 34.441406 C 77.253906 32.820312 78.214844 31.386719 79.480469 30.132812 C 80.742188 28.875 82.304688 27.871094 84.171875 27.125 C 86.03125 26.367188 88.167969 25.992188 90.582031 25.992188 C 93.289062 25.992188 95.757812 26.429688 97.992188 27.296875 C 100.226562 28.164062 102.175781 29.417969 103.847656 31.058594 Z M 102.257812 34.203125 "/>
<path style=" stroke:none;fill-rule:nonzero;fill:rgb(100%,100%,100%);fill-opacity:1;" d="M 97.097656 10.300781 C 97.097656 6.839844 94.320312 4.035156 90.898438 4.035156 C 87.476562 4.035156 84.703125 6.839844 84.703125 10.300781 C 84.703125 11.664062 85.144531 12.929688 85.878906 13.960938 L 85.875 13.960938 L 85.957031 14.066406 C 86.0625 14.203125 86.167969 14.328125 86.273438 14.457031 L 90.898438 20.164062 L 95.527344 14.457031 C 95.640625 14.328125 95.742188 14.195312 95.84375 14.066406 L 95.871094 14.039062 C 96.632812 12.992188 97.097656 11.699219 97.097656 10.300781 Z M 90.898438 12.886719 C 89.484375 12.886719 88.34375 11.730469 88.34375 10.304688 C 88.34375 8.875 89.492188 7.722656 90.898438 7.722656 C 92.3125 7.722656 93.453125 8.882812 93.453125 10.304688 C 93.453125 11.726562 92.3125 12.886719 90.898438 12.886719 Z M 90.898438 12.886719 "/>
<path style=" stroke:none;fill-rule:nonzero;fill:rgb(98.039216%,65.098039%,12.156863%);fill-opacity:1;" d="M 54.875 46.855469 L 56.238281 46.855469 L 56.238281 46.867188 L 57.195312 46.867188 C 57.882812 46.867188 58.445312 47.386719 58.519531 48.058594 L 58.519531 74.75 C 58.519531 75.5 59.117188 76.101562 59.855469 76.101562 L 63.523438 76.101562 L 63.523438 24.335938 Z M 54.875 46.855469 "/>
</g>
</svg>
